<mxfile host="app.diagrams.net" modified="2023-11-29T09:43:23.697Z" agent="Mozilla/5.0 (Macintosh; Intel Mac OS X 10_15_7) AppleWebKit/605.1.15 (KHTML, like Gecko) Version/17.1 Safari/605.1.15" version="22.1.4" etag="prvQCY3wcFmN_FTRq3uQ" type="github">
  <diagram name="Pagina-1" id="lfK_5lcRio1pYmNBvc_t">
    <mxGraphModel>
      <root>
        <mxCell id="0" />
        <mxCell id="1" parent="0" />
      </root>
    </mxGraphModel>
  </diagram>
</mxfile>
